<mxfile host="app.diagrams.net" agent="Mozilla/5.0 (X11; Linux x86_64) AppleWebKit/537.36 (KHTML, like Gecko) Chrome/134.0.0.0 Safari/537.36" version="26.2.8">
  <diagram name="Halaman-1" id="9fGs9Vn8Tkgkwx3WWf9k">
    <mxGraphModel dx="2067" dy="1245" grid="0" gridSize="10" guides="1" tooltips="1" connect="1" arrows="1" fold="1" page="0" pageScale="1" pageWidth="827" pageHeight="1169" math="0" shadow="0">
      <root>
        <mxCell id="0" />
        <mxCell id="1" parent="0" />
        <mxCell id="W_C2Z8PSOMMcqS_Pn6WL-44" value="" style="edgeStyle=none;curved=1;rounded=0;orthogonalLoop=1;jettySize=auto;html=1;fontSize=12;startSize=8;endSize=8;exitX=0.288;exitY=1.009;exitDx=0;exitDy=0;exitPerimeter=0;" edge="1" parent="1" source="W_C2Z8PSOMMcqS_Pn6WL-7" target="W_C2Z8PSOMMcqS_Pn6WL-42">
          <mxGeometry relative="1" as="geometry">
            <mxPoint x="33" y="294" as="sourcePoint" />
          </mxGeometry>
        </mxCell>
        <mxCell id="W_C2Z8PSOMMcqS_Pn6WL-5" value="&lt;p style=&quot;margin:0px;margin-top:6px;text-align:center;&quot;&gt;&lt;b&gt;Doctor service&lt;/b&gt;&lt;/p&gt;&lt;hr size=&quot;1&quot; style=&quot;border-style:solid;&quot;&gt;&lt;p style=&quot;margin:0px;margin-left:8px;&quot;&gt;&amp;nbsp; &amp;nbsp; + createSlot()&lt;/p&gt;&lt;p style=&quot;margin:0px;margin-left:8px;&quot;&gt;&amp;nbsp; &amp;nbsp; + getAvailableSlots()&lt;/p&gt;" style="align=left;overflow=fill;html=1;dropTarget=0;whiteSpace=wrap;" vertex="1" parent="1">
          <mxGeometry x="403" y="46" width="179" height="109" as="geometry" />
        </mxCell>
        <mxCell id="W_C2Z8PSOMMcqS_Pn6WL-6" value="" style="shape=component;jettyWidth=8;jettyHeight=4;" vertex="1" parent="W_C2Z8PSOMMcqS_Pn6WL-5">
          <mxGeometry x="1" width="20" height="20" relative="1" as="geometry">
            <mxPoint x="-24" y="4" as="offset" />
          </mxGeometry>
        </mxCell>
        <mxCell id="W_C2Z8PSOMMcqS_Pn6WL-19" style="edgeStyle=none;curved=1;rounded=0;orthogonalLoop=1;jettySize=auto;html=1;fontSize=12;startSize=8;endSize=8;exitX=1;exitY=0.5;exitDx=0;exitDy=0;" edge="1" parent="1" source="W_C2Z8PSOMMcqS_Pn6WL-7" target="W_C2Z8PSOMMcqS_Pn6WL-5">
          <mxGeometry relative="1" as="geometry" />
        </mxCell>
        <mxCell id="W_C2Z8PSOMMcqS_Pn6WL-37" value="" style="edgeStyle=none;curved=1;rounded=0;orthogonalLoop=1;jettySize=auto;html=1;fontSize=12;startSize=8;endSize=8;exitX=0.035;exitY=1.009;exitDx=0;exitDy=0;exitPerimeter=0;" edge="1" parent="1" source="W_C2Z8PSOMMcqS_Pn6WL-7" target="W_C2Z8PSOMMcqS_Pn6WL-21">
          <mxGeometry relative="1" as="geometry" />
        </mxCell>
        <mxCell id="W_C2Z8PSOMMcqS_Pn6WL-7" value="&lt;p style=&quot;margin: 6px 0px 0px; text-align: center;&quot;&gt;&lt;b&gt;Doctor API&lt;/b&gt;&lt;/p&gt;&lt;hr size=&quot;1&quot; style=&quot;border-style:solid;&quot;&gt;&lt;p style=&quot;margin:0px;margin-left:8px;&quot;&gt;&amp;nbsp; &amp;nbsp; + POST /doctor/schedule&amp;nbsp; &amp;nbsp; &amp;nbsp; &amp;nbsp;→ DoctorController.createSlot()&lt;/p&gt;&lt;p style=&quot;margin:0px;margin-left:8px;&quot;&gt;&amp;nbsp; &amp;nbsp; + GET&amp;nbsp; /doctor/schedule&amp;nbsp; &amp;nbsp; &amp;nbsp; &amp;nbsp;→ DoctorController.getSlots()&lt;/p&gt;&lt;p style=&quot;margin:0px;margin-left:8px;&quot;&gt;&amp;nbsp; &amp;nbsp; + PATCH /doctor/approve&amp;nbsp; &amp;nbsp; &amp;nbsp; &amp;nbsp;→ DoctorController.approveReservation()&lt;/p&gt;&lt;p style=&quot;margin:0px;margin-left:8px;&quot;&gt;&amp;nbsp; &amp;nbsp; + POST /consultation&amp;nbsp; &amp;nbsp; &amp;nbsp; &amp;nbsp; &amp;nbsp; → DoctorController.createConsultation()&lt;/p&gt;&lt;p style=&quot;margin:0px;margin-left:8px;&quot;&gt;&amp;nbsp; &amp;nbsp; + POST /prescription&amp;nbsp; &amp;nbsp; &amp;nbsp; &amp;nbsp; &amp;nbsp; → DoctorController.issuePrescription()&lt;/p&gt;" style="align=left;overflow=fill;html=1;dropTarget=0;whiteSpace=wrap;" vertex="1" parent="1">
          <mxGeometry x="-209" y="177" width="424" height="115" as="geometry" />
        </mxCell>
        <mxCell id="W_C2Z8PSOMMcqS_Pn6WL-8" value="" style="shape=component;jettyWidth=8;jettyHeight=4;" vertex="1" parent="W_C2Z8PSOMMcqS_Pn6WL-7">
          <mxGeometry x="1" width="20" height="20" relative="1" as="geometry">
            <mxPoint x="-24" y="4" as="offset" />
          </mxGeometry>
        </mxCell>
        <mxCell id="W_C2Z8PSOMMcqS_Pn6WL-21" value="&lt;p style=&quot;margin:0px;margin-top:6px;text-align:center;&quot;&gt;&lt;b&gt;User Repos&lt;/b&gt;&lt;/p&gt;&lt;hr size=&quot;1&quot; style=&quot;border-style:solid;&quot;&gt;&lt;p style=&quot;margin:0px;margin-left:8px;&quot;&gt;+ UserRepository&lt;/p&gt;&lt;p style=&quot;margin:0px;margin-left:8px;&quot;&gt;+ ReservationRepository&lt;/p&gt;&lt;p style=&quot;margin:0px;margin-left:8px;&quot;&gt;- Get user data&lt;/p&gt;&lt;p style=&quot;margin:0px;margin-left:8px;&quot;&gt;- Get schedule availability&lt;/p&gt;&lt;p style=&quot;margin:0px;margin-left:8px;&quot;&gt;- Save booking &amp;amp; update status&lt;/p&gt;&lt;div&gt;&lt;br&gt;&lt;/div&gt;" style="align=left;overflow=fill;html=1;dropTarget=0;whiteSpace=wrap;" vertex="1" parent="1">
          <mxGeometry x="-332" y="443" width="183" height="127" as="geometry" />
        </mxCell>
        <mxCell id="W_C2Z8PSOMMcqS_Pn6WL-22" value="" style="shape=component;jettyWidth=8;jettyHeight=4;" vertex="1" parent="W_C2Z8PSOMMcqS_Pn6WL-21">
          <mxGeometry x="1" width="20" height="20" relative="1" as="geometry">
            <mxPoint x="-24" y="4" as="offset" />
          </mxGeometry>
        </mxCell>
        <mxCell id="W_C2Z8PSOMMcqS_Pn6WL-26" style="edgeStyle=none;curved=1;rounded=0;orthogonalLoop=1;jettySize=auto;html=1;entryX=0.5;entryY=0;entryDx=0;entryDy=0;fontSize=12;startSize=8;endSize=8;" edge="1" parent="1" source="W_C2Z8PSOMMcqS_Pn6WL-24" target="W_C2Z8PSOMMcqS_Pn6WL-7">
          <mxGeometry relative="1" as="geometry" />
        </mxCell>
        <mxCell id="W_C2Z8PSOMMcqS_Pn6WL-24" value="&lt;p style=&quot;margin:0px;margin-top:6px;text-align:center;&quot;&gt;&lt;b&gt;Client&lt;/b&gt;&lt;/p&gt;&lt;hr size=&quot;1&quot; style=&quot;border-style:solid;&quot;&gt;&lt;p style=&quot;margin:0px;margin-left:8px;&quot;&gt;+ Web: Radien Go, React.js&lt;/p&gt;" style="align=left;overflow=fill;html=1;dropTarget=0;whiteSpace=wrap;" vertex="1" parent="1">
          <mxGeometry x="-87" y="-14" width="180" height="90" as="geometry" />
        </mxCell>
        <mxCell id="W_C2Z8PSOMMcqS_Pn6WL-25" value="" style="shape=component;jettyWidth=8;jettyHeight=4;" vertex="1" parent="W_C2Z8PSOMMcqS_Pn6WL-24">
          <mxGeometry x="1" width="20" height="20" relative="1" as="geometry">
            <mxPoint x="-24" y="4" as="offset" />
          </mxGeometry>
        </mxCell>
        <mxCell id="W_C2Z8PSOMMcqS_Pn6WL-47" value="" style="edgeStyle=none;curved=1;rounded=0;orthogonalLoop=1;jettySize=auto;html=1;fontSize=12;startSize=8;endSize=8;" edge="1" parent="1" target="W_C2Z8PSOMMcqS_Pn6WL-45">
          <mxGeometry relative="1" as="geometry">
            <mxPoint x="173" y="294" as="sourcePoint" />
          </mxGeometry>
        </mxCell>
        <mxCell id="W_C2Z8PSOMMcqS_Pn6WL-42" value="&lt;p style=&quot;margin:0px;margin-top:6px;text-align:center;&quot;&gt;&lt;b&gt;Reservation Approval service&lt;/b&gt;&lt;/p&gt;&lt;hr size=&quot;1&quot; style=&quot;border-style:solid;&quot;&gt;&lt;p style=&quot;margin:0px;margin-left:8px;&quot;&gt;&amp;nbsp; &amp;nbsp; + approveReservation()&lt;/p&gt;&lt;p style=&quot;margin:0px;margin-left:8px;&quot;&gt;&amp;nbsp; &amp;nbsp; + rejectReservation()&lt;/p&gt;" style="align=left;overflow=fill;html=1;dropTarget=0;whiteSpace=wrap;" vertex="1" parent="1">
          <mxGeometry x="-123" y="452" width="257" height="109" as="geometry" />
        </mxCell>
        <mxCell id="W_C2Z8PSOMMcqS_Pn6WL-43" value="" style="shape=component;jettyWidth=8;jettyHeight=4;" vertex="1" parent="W_C2Z8PSOMMcqS_Pn6WL-42">
          <mxGeometry x="1" width="20" height="20" relative="1" as="geometry">
            <mxPoint x="-24" y="4" as="offset" />
          </mxGeometry>
        </mxCell>
        <mxCell id="W_C2Z8PSOMMcqS_Pn6WL-50" value="" style="edgeStyle=none;curved=1;rounded=0;orthogonalLoop=1;jettySize=auto;html=1;fontSize=12;startSize=8;endSize=8;exitX=1;exitY=0.75;exitDx=0;exitDy=0;" edge="1" parent="1" source="W_C2Z8PSOMMcqS_Pn6WL-7" target="W_C2Z8PSOMMcqS_Pn6WL-48">
          <mxGeometry relative="1" as="geometry" />
        </mxCell>
        <mxCell id="W_C2Z8PSOMMcqS_Pn6WL-45" value="&lt;p style=&quot;margin:0px;margin-top:6px;text-align:center;&quot;&gt;&lt;b&gt;Consultation Service&lt;/b&gt;&lt;/p&gt;&lt;hr size=&quot;1&quot; style=&quot;border-style:solid;&quot;&gt;&lt;p style=&quot;margin:0px;margin-left:8px;&quot;&gt;&amp;nbsp; &amp;nbsp; + createConsultation()&lt;/p&gt;" style="align=left;overflow=fill;html=1;dropTarget=0;whiteSpace=wrap;" vertex="1" parent="1">
          <mxGeometry x="165" y="447" width="257" height="109" as="geometry" />
        </mxCell>
        <mxCell id="W_C2Z8PSOMMcqS_Pn6WL-46" value="" style="shape=component;jettyWidth=8;jettyHeight=4;" vertex="1" parent="W_C2Z8PSOMMcqS_Pn6WL-45">
          <mxGeometry x="1" width="20" height="20" relative="1" as="geometry">
            <mxPoint x="-24" y="4" as="offset" />
          </mxGeometry>
        </mxCell>
        <mxCell id="W_C2Z8PSOMMcqS_Pn6WL-48" value="&lt;p style=&quot;margin:0px;margin-top:6px;text-align:center;&quot;&gt;&lt;b&gt;Prescription Service&lt;/b&gt;&lt;/p&gt;&lt;hr size=&quot;1&quot; style=&quot;border-style:solid;&quot;&gt;&lt;p style=&quot;margin:0px;margin-left:8px;&quot;&gt;&amp;nbsp; &amp;nbsp; + issuePrescription()&lt;/p&gt;" style="align=left;overflow=fill;html=1;dropTarget=0;whiteSpace=wrap;" vertex="1" parent="1">
          <mxGeometry x="390" y="276" width="257" height="109" as="geometry" />
        </mxCell>
        <mxCell id="W_C2Z8PSOMMcqS_Pn6WL-49" value="" style="shape=component;jettyWidth=8;jettyHeight=4;" vertex="1" parent="W_C2Z8PSOMMcqS_Pn6WL-48">
          <mxGeometry x="1" width="20" height="20" relative="1" as="geometry">
            <mxPoint x="-24" y="4" as="offset" />
          </mxGeometry>
        </mxCell>
      </root>
    </mxGraphModel>
  </diagram>
</mxfile>
